<?xml version="1.0" encoding="UTF-8"?>
<svg width="128" height="128" version="1.1" viewBox="0 0 33.867 33.867" xmlns="http://www.w3.org/2000/svg" xmlns:cc="http://creativecommons.org/ns#" xmlns:dc="http://purl.org/dc/elements/1.1/" xmlns:rdf="http://www.w3.org/1999/02/22-rdf-syntax-ns#">
<metadata>
<rdf:RDF>
<cc:Work rdf:about="">
<dc:format>image/svg+xml</dc:format>
<dc:type rdf:resource="http://purl.org/dc/dcmitype/StillImage"/>
<dc:title/>
</cc:Work>
</rdf:RDF>
</metadata>
<g transform="translate(-2.459 -332.27)">
<g fill-rule="evenodd">
<path d="m74.833 481.87v14.214l12.327-5.0087v-13.274z" points="74.833031,496.0875 87.160449,491.07881 87.160449,477.80464 74.833031,481.87385 " fill="#353564"/>
<path d="m74.833 496.09 3.7228 6.5323 13.919-6.2678-5.3141-5.2731z" points="78.555844,502.61979 92.474529,496.35195 87.160449,491.07881 74.833031,496.0875 " fill="#afafde"/>
<path d="m87.16 477.8 5.3141 3.2544v15.293l-5.3141-5.2731z" points="92.474529,481.05904 92.474529,496.35195 87.160449,491.07881 87.160449,477.80464 " fill="#e9e9ff"/>
<path d="m74.833 481.87 3.7228 4.1925 13.919-5.0073-5.3141-3.2544z" points="78.555844,486.06636 92.474529,481.05904 87.160449,477.80464 74.833031,481.87385 " fill="#4d4d9f"/>
<path d="m78.556 486.07v16.553l13.919-6.2678v-15.293z" points="78.555844,502.61979 92.474529,496.35195 92.474529,481.05904 78.555844,486.06636 " fill="#d7d7ff"/>
<path d="m74.833 481.87 3.7228 4.1925v16.553l-3.7228-6.5323z" points="78.555844,486.06636 78.555844,502.61979 74.833031,496.0875 74.833031,481.87385 " fill="#8686bf"/>
</g>
<path d="m12.764 356.98v-9.1846l0.19674-0.0524c0.10821-0.0289 2.6166-0.63395 5.5742-1.3447 14.814-3.5601 17.3-4.1568 17.457-4.1914l0.1705-0.0374-2.93e-4 8.4901-2.94e-4 8.49-11.633 3.4828c-6.3983 1.9155-11.663 3.4939-11.699 3.5075-0.05231 0.0198-0.06558-1.8339-0.06558-9.1598z" fill="#b3b3b3" stroke-width=".052463"/>
<path d="m7.7402 359.25-4.9973-6.8473 0.013287-7.8489 0.013286-7.8489 9.9942 11.089v9.1526c0 5.0339-0.0059 9.1521-0.01311 9.1515-0.0072-5.9e-4 -2.2619-3.0824-5.0104-6.8484z" fill="#808080" stroke-width=".052463"/>
<path d="m11.077 345.89c-0.91301-1.0167-3.1486-3.5004-4.968-5.5194-1.8194-2.019-3.2993-3.6795-3.2888-3.6901 0.010571-0.0111 4.7209-0.94688 10.467-2.0807l10.448-2.0614 6.1809 4.781c3.3995 2.6296 6.1658 4.7953 6.1475 4.8128-0.01837 0.0174-2.8074 0.69636-6.1978 1.5087-3.3904 0.81234-8.5606 2.0522-11.489 2.7553-2.9287 0.70306-5.3958 1.2927-5.4824 1.3104-0.15174 0.031-0.21696-0.0342-1.8174-1.8164z" fill="#666" stroke-width=".052463"/>
</g>
<g transform="translate(-2.459 -69.133)">
<path d="m7.3932 82.712c-1.7163-2.2147-3.0855-1.8368-3.0855 0.71919 0 2.6148 1.3692 6.4675 3.047 8.6325s3.047 1.8458 3.047-0.76893c0.03858-2.5062-1.3306-6.4177-3.0084-8.5827zm0.17356 7.5982v0.47006c0 0.11752-0.077138 0.0473-0.13499-0.02732-0.077138-0.09949-0.13499-0.23293-0.13499-0.32109v-0.47006c-0.61711-0.85505-0.96423-1.7731-1.0607-2.632v-0.11751c0-0.1469 0.077138-0.16487 0.17356-0.04031 0.03857 0.04975 0.03857 0.04975 0.077138 0.0996 0.096423 0.12442 0.17356 0.2827 0.21213 0.47937 0.077138 0.62837 0.23142 1.0919 0.65568 1.6687v-1.9978c-0.69425-1.0134-1.0221-1.8477-1.0221-2.6703 0-0.88138 0.48211-0.72934 1.0028-0.11625v-0.32317c0-0.11752 0.077138-0.0473 0.13499 0.02732 0.077138 0.09949 0.13499 0.23293 0.13499 0.32109v0.32317c0.52068 0.78939 0.84852 1.6237 0.96423 2.39v0.11751c0 0.14691-0.077138 0.10615-0.13499 0.09016-0.03857-0.04975-0.03857-0.04975-0.077138-0.0996-0.077138-0.099485-0.13499-0.23292-0.17356-0.42961-0.077138-0.51084-0.23142-0.97433-0.57854-1.481v1.7628c0.61711 1.002 1.0607 1.8975 1.0607 2.8964 0 1.0283-0.52068 0.82646-1.0992 0.07995zm-0.90638-5.1358c0 0.47006 0.13499 0.90866 0.61711 1.6777v-1.7334c-0.36641-0.41407-0.61711-0.41439-0.61711 0.05574zm0.90638 2.7267v1.8803c0.44355 0.5136 0.69425 0.54328 0.69425-0.0443-0.019284-0.70062-0.28927-1.2253-0.69425-1.836z" fill="#51cd00" stroke-width=".23803"/>
<ellipse transform="matrix(1 0 .28385 .95887 0 0)" cx="-3.8389" cy="79.707" rx="6.3889" ry="4.2346" fill="#38adff" fill-rule="evenodd" stroke-width=".32509"/>
<path d="m27.478 85.325c0-0.56434-0.51021-0.96536-1.1905-0.80135l-3.699 0.89181c-0.59524 0.14351-1.148 0.76048-1.148 1.3651v1.7736l-0.76532 0.18451v7.9007l7.5681-1.8246v-7.8604l-0.76531 0.18451zm-0.9779 2.0497-4.1667 1.0046v-1.8139c0-0.16124 0.08504-0.22205 0.21259-0.2528l3.699-0.89181c0.17007-0.041 0.21259 0.02937 0.21259 0.1503v1.8139zm-8.0783 1.9476 1.148-0.27677v7.9007l-1.148 0.27677c-0.38266 0.09225-0.76531-0.17829-0.76531-0.54107v-6.4496c0-0.44341 0.38266-0.81783 0.76531-0.91009zm12.84-2.3701v6.4496c0 0.36279-0.29762 0.79733-0.76531 0.91009l-1.148 0.27677v-7.9007l1.148-0.27677c0.46769-0.11277 0.76531 0.09766 0.76531 0.54107z" fill="#ff9f00" stroke-width=".41399"/>
</g>
</svg>
